<svg xmlns="http://www.w3.org/2000/svg" width="146.995" height="28.295" viewBox="0 0 146.995 28.295"><g transform="translate(-0.67 -6.205)"><path d="M11.9-17.455v4.091H8.568V0H3.023V-13.364H.67v-4.091H3.023v-.886a5.779,5.779,0,0,1,1.665-4.528,6.244,6.244,0,0,1,4.335-1.494,12.986,12.986,0,0,1,2.182.176q1.034.176,1.523.313l-.886,4.068a6.5,6.5,0,0,0-.739-.165,4.922,4.922,0,0,0-.83-.074,1.694,1.694,0,0,0-1.335.432,1.759,1.759,0,0,0-.369,1.182v.977ZM17.493.3A6.464,6.464,0,0,1,13.373-.977a4.612,4.612,0,0,1-1.619-3.864,4.885,4.885,0,0,1,.886-3.074A5.227,5.227,0,0,1,15-9.608a12.129,12.129,0,0,1,3.239-.7,17.82,17.82,0,0,0,3.188-.477q.949-.284.949-1.08v-.057a1.626,1.626,0,0,0-.6-1.352,2.545,2.545,0,0,0-1.625-.477,2.994,2.994,0,0,0-1.773.477,2.1,2.1,0,0,0-.852,1.318L12.4-12.136A5.986,5.986,0,0,1,14.7-16.1a8.571,8.571,0,0,1,5.494-1.58,10.765,10.765,0,0,1,3.972.688,6.32,6.32,0,0,1,2.75,1.983,4.978,4.978,0,0,1,1.006,3.148V0H22.7V-2.432h-.136A5.253,5.253,0,0,1,17.493.3Zm1.716-3.636a3.387,3.387,0,0,0,2.267-.8A2.584,2.584,0,0,0,22.413-6.2V-7.864a4.9,4.9,0,0,1-1.312.42q-.847.17-1.619.284-2.466.375-2.466,2.045A1.539,1.539,0,0,0,17.629-3.8,2.585,2.585,0,0,0,19.209-3.341ZM46.326-17.455,40.338,0H33.974L28-17.455h5.852L37.065-5.432h.182l3.227-12.023Zm6.4-5.818V0H47.171V-23.273ZM54.971,0V-17.455h5.557V0Zm2.784-19.489a2.858,2.858,0,0,1-2.011-.778,2.47,2.47,0,0,1-.841-1.881,2.453,2.453,0,0,1,.841-1.875,2.87,2.87,0,0,1,2.011-.773,2.864,2.864,0,0,1,2.017.773,2.46,2.46,0,0,1,.835,1.875,2.478,2.478,0,0,1-.835,1.881A2.853,2.853,0,0,1,57.755-19.489ZM68.327-9.955V0H62.77V-17.455h5.284v3.2h.193a4.962,4.962,0,0,1,1.977-2.511,5.916,5.916,0,0,1,3.33-.92,6.08,6.08,0,0,1,3.2.818,5.583,5.583,0,0,1,2.114,2.3,7.367,7.367,0,0,1,.744,3.443V0H74.055V-10.034a3.214,3.214,0,0,0-.733-2.273,2.647,2.647,0,0,0-2.062-.818,2.791,2.791,0,0,0-2.119.841A3.278,3.278,0,0,0,68.327-9.955ZM81.786,0V-23.273h5.557V-11.2h.25l4.909-6.25h6.3L92.6-9.852,99.047,0h-6.42L88.468-6.6,87.343-5.239V0ZM99.563,0V-3.17l8.091-9.852v-.114H99.847v-4.318h14.432v3.477l-7.5,9.545v.114h7.773V0Zm20.425.33a2.867,2.867,0,0,1-2.1-.864,2.8,2.8,0,0,1-.858-2.091,2.75,2.75,0,0,1,.858-2.068,2.886,2.886,0,0,1,2.1-.852,2.877,2.877,0,0,1,2.057.852,2.8,2.8,0,0,1,.9,2.068,2.851,2.851,0,0,1-.9,2.091A2.858,2.858,0,0,1,119.987.33Zm0-11.977a2.867,2.867,0,0,1-2.1-.864,2.8,2.8,0,0,1-.858-2.091,2.75,2.75,0,0,1,.858-2.068,2.886,2.886,0,0,1,2.1-.852,2.877,2.877,0,0,1,2.057.852,2.8,2.8,0,0,1,.9,2.068,2.851,2.851,0,0,1-.9,2.091A2.858,2.858,0,0,1,119.987-11.648Zm16.129-12.716L128.616,3.5h-4.739l7.5-27.864Zm11.55,0L140.166,3.5h-4.739l7.5-27.864Z" transform="translate(0 31)" fill="#5856d6"/></g></svg>