<?xml version="1.0" encoding="UTF-8"?>
<svg width="406px" height="48px" viewBox="0 0 406 48" version="1.1" xmlns="http://www.w3.org/2000/svg" xmlns:xlink="http://www.w3.org/1999/xlink">
    <!-- Generator: Sketch 48.2 (47327) - http://www.bohemiancoding.com/sketch -->
    <title>favlinkz</title>
    <desc>Created with Sketch.</desc>
    <defs></defs>
    <g id="Artboard" stroke="none" stroke-width="1" fill="none" fill-rule="evenodd" transform="translate(-98.000000, -204.000000)">
        <path d="M112.25,251.25 L112.25,224.25 L98.75,224.25 L98.75,217.5 L112.25,217.5 L112.25,210.75 L119,210.75 L119,204 L139.25,204 L139.25,210.75 L125.75,210.75 L125.75,217.5 L139.25,217.5 L139.25,224.25 L125.75,224.25 L125.75,251.25 L112.25,251.25 Z M150.75,251.25 L150.75,244.5 L144,244.5 L144,237.75 L150.75,237.75 L150.75,231 L177.75,231 L177.75,224.25 L150.75,224.25 L150.75,217.5 L184.5,217.5 L184.5,224.25 L191.25,224.25 L191.25,251.25 L150.75,251.25 Z M157.5,244.5 L177.75,244.5 L177.75,237.75 L157.5,237.75 L157.5,244.5 Z M216.25,251.25 L216.25,244.5 L209.5,244.5 L209.5,237.75 L202.75,237.75 L202.75,217.5 L216.25,217.5 L216.25,237.75 L229.75,237.75 L229.75,217.5 L243.25,217.5 L243.25,237.75 L236.5,237.75 L236.5,244.5 L229.75,244.5 L229.75,251.25 L216.25,251.25 Z M254.75,251.25 L254.75,244.5 L268.25,244.5 L268.25,210.75 L261.5,210.75 L261.5,204 L281.75,204 L281.75,244.5 L295.25,244.5 L295.25,251.25 L254.75,251.25 Z M320.25,210.75 L320.25,204 L333.75,204 L333.75,210.75 L320.25,210.75 Z M306.75,251.25 L306.75,244.5 L320.25,244.5 L320.25,224.25 L313.5,224.25 L313.5,217.5 L333.75,217.5 L333.75,244.5 L347.25,244.5 L347.25,251.25 L306.75,251.25 Z M352,251.25 L352,217.5 L392.5,217.5 L392.5,224.25 L399.25,224.25 L399.25,251.25 L385.75,251.25 L385.75,224.25 L365.5,224.25 L365.5,251.25 L352,251.25 Z M404,251.25 L404,204 L417.5,204 L417.5,231 L431,231 L431,224.25 L437.75,224.25 L437.75,217.5 L451.25,217.5 L451.25,224.25 L444.5,224.25 L444.5,231 L437.75,231 L437.75,237.75 L444.5,237.75 L444.5,244.5 L451.25,244.5 L451.25,251.25 L437.75,251.25 L437.75,244.5 L431,244.5 L431,237.75 L417.5,237.75 L417.5,251.25 L404,251.25 Z M456,251.25 L456,244.5 L462.75,244.5 L462.75,237.75 L469.5,237.75 L469.5,231 L476.25,231 L476.25,224.25 L456,224.25 L456,217.5 L503.25,217.5 L503.25,224.25 L496.5,224.25 L496.5,231 L489.75,231 L489.75,237.75 L483,237.75 L483,244.5 L503.25,244.5 L503.25,251.25 L456,251.25 Z" id="favlinkz" fill="#FE4505"></path>
    </g>
</svg>