<svg xmlns="http://www.w3.org/2000/svg" width="147.002" height="28.002"><path d="M 11.23 7.265 L 11.23 11.313 L 7.898 11.313 L 7.898 24.538 L 2.353 24.538 L 2.353 11.313 L 0 11.313 L 0 7.265 L 2.353 7.265 L 2.353 6.388 C 2.221 4.726 2.829 3.089 4.018 1.908 C 5.221 0.889 6.771 0.36 8.353 0.429 C 9.084 0.426 9.814 0.485 10.535 0.603 C 11.225 0.719 11.732 0.823 12.058 0.913 L 11.172 4.939 C 10.929 4.87 10.683 4.815 10.433 4.775 C 10.159 4.728 9.882 4.703 9.603 4.702 C 9.117 4.647 8.63 4.803 8.268 5.13 C 8.006 5.462 7.875 5.878 7.899 6.299 L 7.899 7.266 Z M 16.824 24.835 C 15.344 24.893 13.89 24.447 12.703 23.571 C 11.576 22.627 10.974 21.205 11.084 19.748 C 11.026 18.664 11.338 17.592 11.97 16.706 C 12.581 15.938 13.4 15.357 14.33 15.03 C 15.373 14.654 16.463 14.421 17.57 14.338 C 18.645 14.276 19.712 14.118 20.758 13.866 C 21.39 13.678 21.707 13.322 21.707 12.797 L 21.707 12.74 C 21.735 12.225 21.512 11.727 21.107 11.402 C 20.635 11.066 20.062 10.9 19.482 10.93 C 18.855 10.9 18.235 11.065 17.709 11.402 C 17.265 11.712 16.96 12.179 16.857 12.707 L 11.73 12.529 C 11.941 10.971 12.768 9.56 14.03 8.606 C 15.627 7.478 17.566 6.926 19.525 7.042 C 20.88 7.02 22.228 7.251 23.497 7.723 C 24.577 8.117 25.528 8.796 26.247 9.686 C 26.931 10.58 27.286 11.679 27.253 12.801 L 27.253 24.538 L 22.031 24.538 L 22.031 22.131 L 21.895 22.131 C 20.899 23.951 18.907 25.013 16.824 24.835 Z M 18.54 21.237 C 19.368 21.256 20.174 20.975 20.807 20.445 C 21.42 19.944 21.766 19.19 21.744 18.403 L 21.744 16.756 C 21.328 16.955 20.887 17.095 20.432 17.172 C 19.867 17.284 19.327 17.378 18.813 17.453 C 17.169 17.7 16.347 18.375 16.347 19.476 C 16.318 19.984 16.548 20.472 16.96 20.778 C 17.422 21.095 17.977 21.255 18.54 21.232 Z M 45.658 7.265 L 39.669 24.538 L 33.305 24.538 L 27.331 7.265 L 33.183 7.265 L 36.396 19.163 L 36.578 19.163 L 39.805 7.265 Z M 52.058 1.508 L 52.058 24.538 L 46.503 24.538 L 46.503 1.508 Z M 54.303 24.538 L 54.303 7.265 L 59.86 7.265 L 59.86 24.538 Z M 57.087 5.252 C 56.341 5.265 55.619 4.989 55.076 4.482 C 54.535 4.013 54.228 3.333 54.235 2.621 C 54.227 1.911 54.535 1.232 55.076 0.766 C 55.62 0.262 56.342 -0.013 57.087 0.001 C 57.834 -0.015 58.558 0.26 59.104 0.766 C 59.642 1.234 59.947 1.912 59.939 2.621 C 59.947 3.332 59.642 4.011 59.104 4.482 C 58.56 4.991 57.835 5.267 57.087 5.252 Z M 67.659 14.687 L 67.659 24.538 L 62.102 24.538 L 62.102 7.265 L 67.386 7.265 L 67.386 10.432 L 67.579 10.432 C 67.943 9.41 68.638 8.537 69.556 7.947 C 70.55 7.322 71.71 7.005 72.886 7.036 C 74.008 7.009 75.116 7.289 76.087 7.846 C 76.996 8.39 77.729 9.18 78.201 10.122 C 78.723 11.181 78.979 12.351 78.945 13.529 L 78.945 24.538 L 73.387 24.538 L 73.387 14.609 C 73.444 13.794 73.182 12.988 72.654 12.359 C 72.12 11.804 71.366 11.508 70.592 11.55 C 69.799 11.516 69.028 11.819 68.473 12.382 C 67.909 13.016 67.617 13.843 67.659 14.687 Z M 81.119 24.538 L 81.119 1.508 L 86.676 1.508 L 86.676 13.455 L 86.926 13.455 L 91.835 7.27 L 98.135 7.27 L 91.933 14.789 L 98.38 24.538 L 91.96 24.538 L 87.801 18.007 L 86.676 19.354 L 86.676 24.538 Z M 98.896 24.538 L 98.896 21.401 L 106.988 11.652 L 106.988 11.539 L 99.18 11.539 L 99.18 7.266 L 113.613 7.266 L 113.613 10.707 L 106.113 20.152 L 106.113 20.265 L 113.886 20.265 L 113.886 24.538 Z M 119.322 24.865 C 118.533 24.878 117.773 24.569 117.222 24.01 C 116.655 23.47 116.343 22.719 116.364 21.94 C 116.344 21.169 116.656 20.425 117.222 19.894 C 117.777 19.341 118.535 19.037 119.322 19.051 C 120.094 19.047 120.836 19.351 121.379 19.894 C 121.956 20.421 122.282 21.164 122.279 21.94 C 122.283 22.724 121.956 23.474 121.379 24.01 C 120.839 24.559 120.096 24.867 119.321 24.865 Z M 119.322 13.013 C 118.533 13.026 117.773 12.716 117.222 12.158 C 116.655 11.618 116.343 10.867 116.364 10.088 C 116.344 9.317 116.656 8.573 117.222 8.042 C 117.777 7.489 118.535 7.185 119.322 7.199 C 120.094 7.195 120.836 7.499 121.379 8.042 C 121.956 8.569 122.282 9.311 122.279 10.088 C 122.283 10.872 121.956 11.621 121.379 12.158 C 120.838 12.706 120.096 13.015 119.321 13.012 Z M 135.452 0.429 L 127.95 28.002 L 123.211 28.002 L 130.711 0.428 Z M 147.002 0.429 L 139.501 28.002 L 134.762 28.002 L 142.262 0.428 Z" fill="hsl(0, 0%, 98%)"></path></svg>